# xmcd CD database file
#
# Track frame offsets:
#	150
#	13599
#	30592
#	43094
#	60979
#	75374
#	87553
#	102032
#	116376
#	132281
#	151948
#
# Disc length: 2294 seconds
#
# Revision: 0
# Processed by: cddbd v1.5.1PL0 Copyright (c) Steve Scherf et al.
# Submitted via: CDex 1.51
#
DISCID=7708f40b
DTITLE=Ron Flynt And The Bluehearts - Big Blue Heart
DYEAR=1900
DGENRE=Blues
TTITLE0=King Of The Deep Blue Sea
TTITLE1=Holding On
TTITLE2=I See Blue
TTITLE3=Northern Town
TTITLE4=River Road
TTITLE5=True Love
TTITLE6=Following The Bomb Squad
TTITLE7=Sideways Into The Night
TTITLE8=Picasso 2
TTITLE9=Trying To Get To You
TTITLE10=Darkness
EXTD=
EXTT0=
EXTT1=
EXTT2=
EXTT3=
EXTT4=
EXTT5=
EXTT6=
EXTT7=
EXTT8=
EXTT9=
EXTT10=
PLAYORDER=
